<?xml version="1.0" standalone="no"?>
<!DOCTYPE svg PUBLIC "-//W3C//DTD SVG 20010904//EN"
 "http://www.w3.org/TR/2001/REC-SVG-20010904/DTD/svg10.dtd">
<svg version="1.0" xmlns="http://www.w3.org/2000/svg"
 width="1024.000000pt" height="1024.000000pt" viewBox="0 0 1024.000000 1024.000000"
 preserveAspectRatio="xMidYMid meet">

<g transform="translate(0.000000,1024.000000) scale(0.100000,-0.100000)"
fill="#000000" stroke="none">
<path d="M4682 9084 c-8 -4 -28 -20 -45 -37 l-32 -31 -3 -227 -3 -226 -112
-11 c-62 -5 -132 -15 -157 -22 -25 -6 -74 -17 -110 -25 -36 -7 -81 -18 -100
-24 -19 -6 -47 -11 -62 -11 -16 0 -28 -4 -28 -9 0 -6 -20 -13 -45 -17 -25 -3
-45 -10 -45 -15 0 -5 -11 -9 -25 -9 -14 0 -25 -4 -25 -10 0 -5 -18 -13 -40
-16 -22 -4 -40 -10 -40 -14 0 -5 -18 -11 -40 -15 -22 -4 -40 -11 -40 -15 0 -5
-16 -12 -35 -16 -19 -3 -35 -10 -35 -15 0 -5 -9 -9 -20 -9 -11 0 -20 -4 -20
-9 0 -5 -13 -12 -30 -16 -16 -4 -30 -10 -30 -15 0 -5 -13 -11 -30 -15 -16 -4
-30 -11 -30 -16 0 -5 -6 -9 -14 -9 -8 0 -21 -6 -28 -13 -7 -6 -31 -21 -53 -32
-22 -11 -46 -26 -53 -32 -7 -7 -20 -13 -28 -13 -8 0 -14 -4 -14 -10 0 -5 -11
-12 -24 -16 -14 -3 -27 -11 -29 -18 -3 -7 -27 -26 -54 -41 -26 -16 -51 -33
-55 -39 -4 -6 -11 -11 -16 -11 -4 0 -20 -12 -35 -27 -16 -16 -33 -28 -40 -28
-7 -1 -23 -14 -37 -30 -13 -17 -32 -30 -42 -30 -10 0 -18 -4 -18 -9 0 -5 -21
-30 -47 -55 -27 -26 -52 -51 -58 -56 -5 -6 -29 -29 -52 -53 -23 -23 -48 -47
-55 -54 -21 -20 -38 -42 -38 -49 0 -5 -17 -24 -39 -44 -21 -20 -42 -46 -45
-58 -4 -12 -12 -22 -17 -22 -5 0 -13 -8 -16 -17 -4 -10 -12 -23 -17 -30 -30
-34 -36 -43 -36 -52 0 -5 -7 -11 -15 -15 -8 -3 -15 -12 -15 -21 0 -8 -4 -15
-10 -15 -5 0 -12 -11 -16 -25 -3 -14 -10 -25 -14 -25 -4 0 -11 -11 -14 -25 -4
-14 -11 -25 -16 -25 -6 0 -10 -7 -10 -15 0 -8 -4 -15 -9 -15 -5 0 -12 -14 -16
-30 -4 -17 -10 -28 -15 -25 -5 3 -11 -8 -15 -25 -4 -16 -11 -30 -16 -30 -5 0
-9 -5 -9 -12 0 -6 -11 -34 -25 -62 -35 -74 -95 -235 -95 -257 0 -10 -4 -19 -9
-19 -5 0 -11 -10 -14 -22 -3 -13 -13 -50 -22 -83 -25 -93 -45 -209 -56 -335
-5 -63 -14 -134 -19 -158 -12 -53 -13 -159 -1 -166 4 -3 11 -19 14 -36 5 -21
14 -31 32 -36 14 -3 25 -10 25 -15 0 -5 18 -9 39 -9 43 0 101 27 101 48 0 6 4
12 9 12 5 0 12 22 16 50 4 27 11 52 16 56 5 3 9 20 9 37 0 18 6 44 14 58 7 14
16 42 20 62 4 21 11 37 16 37 6 0 10 9 10 19 0 11 4 22 9 26 5 3 12 19 16 35
4 17 11 30 16 30 5 0 9 9 9 20 0 21 39 103 52 108 4 2 8 10 8 18 0 8 4 14 9
14 5 0 12 14 16 30 4 17 11 30 16 30 5 0 11 11 15 25 3 14 10 25 15 25 5 0 14
11 19 25 5 14 17 28 25 31 8 4 15 12 15 19 0 8 14 27 30 43 17 17 30 34 30 39
0 5 19 27 43 50 23 23 54 55 69 70 15 15 41 42 58 58 17 17 40 40 52 53 13 12
27 22 33 22 6 0 18 9 28 20 9 11 23 20 31 20 8 0 17 9 21 19 3 11 16 23 28 27
11 4 27 13 35 20 7 8 19 14 27 14 7 0 15 7 19 15 3 8 15 15 26 15 11 0 20 5
20 10 0 6 7 10 15 10 8 0 15 4 15 9 0 5 14 12 30 16 17 4 30 10 30 15 0 5 14
11 30 15 17 4 30 11 30 15 0 5 16 12 35 16 19 3 35 10 35 15 0 5 7 9 15 9 8 0
15 4 15 9 0 5 16 12 35 15 19 4 47 13 62 21 15 8 43 15 61 15 17 0 32 4 32 9
0 6 21 13 48 16 26 3 55 10 64 16 10 5 25 9 33 9 8 0 23 4 33 10 16 9 77 17
292 40 47 4 171 9 277 9 l192 1 3 -232 c2 -176 6 -232 16 -236 16 -5 39 -28
44 -44 3 -7 31 -13 69 -16 51 -3 69 0 82 12 8 9 20 16 26 16 6 0 11 4 11 10 0
5 11 12 25 16 14 3 25 10 25 15 0 5 8 13 18 16 9 4 22 12 29 17 34 30 43 36
52 36 5 0 11 7 15 15 3 8 12 15 21 15 8 0 15 3 15 8 0 4 15 15 33 25 17 10 47
31 66 47 18 17 40 30 47 30 8 0 14 4 14 9 0 5 9 13 21 16 12 4 29 14 38 23 34
33 76 62 88 62 7 0 13 4 13 9 0 5 17 20 38 32 20 13 39 27 40 31 2 4 10 8 18
8 8 0 14 4 14 9 0 5 17 20 38 32 20 13 39 27 40 31 2 4 10 8 18 8 8 0 17 7 20
15 4 8 13 15 21 15 7 0 24 10 36 23 12 13 29 27 37 31 34 16 61 34 78 52 19
21 46 39 80 54 12 5 22 14 22 20 0 5 7 10 15 10 8 0 25 11 37 25 12 14 26 25
31 25 13 0 107 96 107 109 0 6 4 11 10 11 5 0 12 16 16 35 3 19 10 38 15 41
15 9 10 119 -6 150 -8 16 -15 38 -15 49 0 11 -11 29 -25 39 -14 10 -25 23 -25
28 0 12 -26 38 -38 38 -5 0 -17 11 -28 24 -10 14 -28 27 -41 31 -13 3 -23 10
-23 15 0 6 -7 10 -15 10 -9 0 -18 7 -21 15 -4 8 -15 15 -25 15 -11 0 -22 7
-25 15 -4 8 -12 15 -20 15 -8 0 -14 4 -14 9 0 5 -10 13 -22 17 -12 3 -28 13
-36 20 -7 8 -20 14 -28 14 -8 0 -14 5 -14 10 0 6 -8 14 -17 17 -10 4 -25 14
-33 23 -8 10 -25 20 -37 24 -13 4 -23 12 -23 17 0 5 -7 9 -15 9 -9 0 -18 7
-21 15 -4 8 -15 15 -25 15 -11 0 -22 6 -25 14 -3 8 -16 17 -30 20 -13 4 -24
11 -24 16 0 6 -7 10 -15 10 -8 0 -15 4 -15 10 0 5 -11 12 -24 16 -14 3 -27 12
-30 20 -3 8 -12 14 -21 14 -8 0 -15 4 -15 9 0 5 -10 13 -22 17 -13 4 -30 15
-39 25 -9 11 -22 19 -28 19 -6 0 -14 7 -17 15 -4 8 -15 15 -25 15 -11 0 -22 7
-25 15 -4 8 -12 15 -19 15 -8 0 -20 6 -27 13 -21 20 -108 77 -119 77 -5 0 -9
4 -9 9 0 5 -10 13 -22 17 -13 4 -30 14 -38 24 -8 9 -23 19 -32 23 -10 3 -18
11 -18 17 0 5 -9 10 -20 10 -10 0 -23 8 -28 17 -7 12 -26 17 -68 20 -33 1 -65
0 -72 -3z"/>
<path d="M3330 6700 c0 -5 -8 -10 -17 -10 -22 0 -63 -47 -63 -72 0 -10 -4 -18
-10 -18 -6 0 -10 -57 -10 -151 l0 -150 -148 3 c-135 2 -150 1 -168 -16 -18
-19 -19 -52 -22 -1150 -1 -622 0 -1144 3 -1161 9 -53 46 -65 204 -65 76 0 187
5 247 11 80 8 142 8 234 0 69 -6 181 -15 250 -20 142 -11 196 -19 225 -31 11
-5 51 -11 90 -15 38 -3 72 -10 75 -15 3 -5 33 -12 68 -16 34 -3 62 -10 62 -14
0 -4 22 -10 50 -14 27 -4 52 -11 55 -16 3 -6 15 -10 26 -10 10 0 19 -4 19 -9
0 -5 17 -11 39 -15 21 -3 51 -13 67 -21 16 -8 37 -15 46 -15 9 0 19 -4 23 -9
3 -5 19 -12 35 -16 17 -4 30 -11 30 -16 0 -5 7 -9 15 -9 8 0 15 -4 15 -9 0 -5
14 -12 30 -16 17 -4 30 -11 30 -16 0 -5 11 -11 25 -15 14 -3 25 -10 25 -14 0
-4 11 -11 25 -14 14 -4 25 -11 25 -16 0 -6 9 -10 19 -10 11 0 23 -4 26 -10 3
-5 38 -10 77 -10 53 0 76 5 97 19 15 11 39 23 54 26 15 4 27 11 27 15 0 5 14
11 30 15 17 4 30 10 30 15 0 5 14 11 30 15 17 4 30 11 30 16 0 5 7 9 15 9 8 0
15 4 15 9 0 5 16 12 35 15 19 4 35 11 35 16 0 6 18 13 40 16 22 4 40 10 40 15
0 4 16 11 35 15 19 3 38 10 41 15 3 5 14 9 25 9 10 0 19 4 19 9 0 5 23 12 50
16 28 4 50 10 50 14 0 4 28 13 63 19 34 6 85 16 112 22 28 6 75 16 105 21 30
6 72 15 92 20 105 27 428 36 860 24 l218 -6 25 27 25 27 0 1151 0 1152 -22 19
c-21 18 -36 19 -170 16 l-148 -3 0 145 c0 114 -3 151 -17 177 -24 50 -45 70
-70 70 -13 0 -23 5 -23 10 0 13 -375 13 -432 0 -24 -5 -86 -14 -138 -19 -125
-13 -170 -21 -170 -31 0 -5 -25 -12 -55 -15 -30 -4 -55 -11 -55 -15 0 -4 -20
-11 -45 -14 -25 -4 -45 -11 -45 -16 0 -4 -18 -11 -40 -15 -22 -4 -40 -11 -40
-16 0 -5 -7 -9 -15 -9 -8 0 -15 -4 -15 -9 0 -5 -16 -12 -35 -15 -19 -4 -35
-11 -35 -16 0 -4 -13 -11 -30 -15 -16 -4 -30 -10 -30 -15 0 -4 -11 -11 -25
-14 -14 -4 -25 -11 -25 -16 0 -6 -7 -10 -15 -10 -8 0 -15 -4 -15 -10 0 -5 -7
-10 -15 -10 -8 0 -23 -9 -32 -20 -10 -11 -23 -20 -30 -20 -7 0 -13 -4 -13 -9
0 -5 -10 -13 -22 -17 -12 -3 -38 -24 -58 -45 -20 -22 -39 -39 -44 -39 -7 0
-29 -17 -49 -38 -7 -7 -24 -26 -39 -42 -16 -15 -28 -32 -28 -36 0 -4 -18 -24
-40 -45 -22 -21 -40 -42 -40 -47 0 -11 -43 -62 -53 -62 -4 0 -7 7 -7 15 0 8
-3 15 -7 15 -5 0 -19 17 -33 38 -13 20 -41 53 -62 73 -21 20 -38 41 -38 47 0
7 -4 12 -9 12 -5 0 -13 9 -16 20 -3 11 -12 20 -19 20 -7 0 -34 20 -60 45 -27
25 -50 45 -53 45 -2 0 -11 6 -18 13 -29 25 -40 33 -57 40 -10 3 -18 11 -18 16
0 5 -11 12 -25 15 -14 4 -25 11 -25 16 0 6 -7 10 -15 10 -8 0 -15 4 -15 10 0
5 -11 12 -25 16 -14 3 -25 10 -25 14 0 5 -13 11 -30 15 -16 4 -30 10 -30 15 0
5 -13 11 -30 15 -16 4 -30 11 -30 16 0 5 -11 9 -25 9 -14 0 -25 4 -25 9 0 5
-15 13 -32 16 -18 4 -37 11 -43 15 -5 4 -29 11 -52 15 -24 4 -43 11 -43 16 0
5 -15 9 -32 9 -18 1 -51 7 -73 15 -22 8 -50 15 -62 15 -13 0 -23 4 -23 9 0 15
-224 33 -462 37 -154 3 -228 1 -228 -6z m395 -250 c-4 -6 23 -10 74 -10 45 0
81 -4 81 -9 0 -5 38 -12 85 -16 47 -4 85 -10 85 -15 0 -4 27 -11 60 -15 33 -4
60 -11 60 -15 0 -4 23 -11 50 -15 28 -4 50 -11 50 -16 0 -5 7 -9 15 -9 8 0 15
-4 15 -9 0 -5 12 -12 27 -16 15 -3 30 -10 33 -15 3 -5 18 -11 34 -14 16 -3 32
-10 35 -15 4 -5 19 -13 34 -16 15 -4 27 -11 27 -16 0 -5 7 -9 15 -9 8 0 15 -4
15 -9 0 -5 10 -13 22 -16 11 -4 31 -17 42 -30 12 -12 31 -25 44 -29 12 -4 22
-11 22 -15 0 -15 80 -91 95 -91 8 0 15 -5 15 -12 0 -6 7 -18 15 -27 8 -9 28
-30 45 -48 16 -17 30 -36 30 -41 0 -5 7 -12 15 -16 8 -3 15 -14 15 -25 0 -10
7 -21 15 -25 8 -3 15 -12 15 -21 0 -8 4 -15 10 -15 5 0 12 -16 16 -35 3 -19
10 -35 15 -35 5 0 9 -359 9 -845 0 -465 -3 -845 -8 -845 -4 0 -15 9 -25 20 -9
11 -23 20 -31 20 -8 0 -18 9 -21 20 -3 11 -17 23 -31 26 -13 3 -24 10 -24 14
0 4 -11 11 -25 14 -14 4 -25 10 -25 15 0 5 -13 12 -30 16 -16 4 -30 11 -30 16
0 5 -7 9 -15 9 -8 0 -15 4 -15 10 0 5 -16 12 -35 16 -19 3 -35 10 -35 14 0 5
-13 11 -30 15 -16 4 -30 11 -30 16 0 5 -18 12 -40 15 -22 4 -40 10 -40 15 0 5
-7 9 -15 9 -8 0 -15 4 -15 9 0 5 -20 12 -45 15 -25 4 -45 11 -45 15 0 5 -23
11 -52 14 -28 4 -54 11 -57 16 -3 5 -36 12 -73 16 -38 4 -68 11 -68 16 0 5
-18 9 -39 9 -22 0 -41 4 -43 9 -1 6 -56 13 -120 17 -65 4 -118 11 -118 15 0 5
-24 9 -52 9 -29 0 -97 3 -150 7 l-98 6 0 984 0 983 126 0 c81 0 123 -4 119
-10z m2935 -973 l0 -984 -97 -6 c-54 -4 -126 -7 -160 -7 -35 0 -63 -4 -63 -9
0 -5 -52 -12 -115 -16 -63 -4 -115 -11 -115 -16 0 -5 -18 -9 -40 -9 -22 0 -40
-4 -40 -9 0 -5 -29 -13 -65 -16 -36 -4 -65 -11 -65 -15 0 -4 -25 -11 -55 -15
-30 -3 -55 -10 -55 -15 0 -5 -20 -12 -45 -16 -25 -3 -45 -10 -45 -15 0 -5 -9
-9 -21 -9 -11 0 -18 -4 -15 -9 3 -5 -12 -11 -34 -15 -22 -3 -40 -10 -40 -15 0
-5 -18 -11 -40 -15 -22 -3 -40 -10 -40 -15 0 -5 -12 -12 -27 -16 -15 -3 -34
-14 -42 -24 -9 -10 -27 -22 -41 -26 -13 -4 -30 -14 -38 -21 -7 -8 -19 -14 -27
-14 -7 0 -15 -7 -19 -15 -3 -8 -15 -15 -26 -15 -11 0 -20 -4 -20 -9 0 -11 -47
-61 -57 -61 -11 0 -5 1693 6 1700 5 3 13 18 16 33 4 15 11 27 15 27 5 0 12 10
16 23 4 12 15 29 25 38 11 9 19 21 19 26 0 5 13 20 30 33 16 14 29 31 30 39 0
14 108 121 122 121 5 0 24 16 42 35 19 19 39 35 45 35 6 0 14 7 17 15 4 8 15
15 25 15 11 0 22 7 25 15 4 8 12 15 20 15 8 0 14 4 14 10 0 5 11 12 25 16 14
3 25 10 25 14 0 5 14 11 30 15 17 4 30 11 30 16 0 5 18 12 40 15 22 4 40 10
40 15 0 5 7 9 15 9 8 0 15 4 15 9 0 5 21 12 48 16 26 4 50 11 53 16 3 5 29 12
57 16 29 3 52 9 52 13 0 4 34 11 75 15 41 4 75 11 75 16 0 5 43 9 95 9 57 0
95 4 95 10 0 6 42 10 105 10 l105 0 0 -983z"/>
<path d="M3828 5993 c-10 -2 -21 -15 -24 -29 -3 -13 -10 -24 -15 -24 -5 0 -9
-20 -9 -45 0 -62 34 -95 96 -95 24 0 44 -4 44 -9 0 -5 36 -12 80 -16 44 -4 80
-11 80 -16 0 -5 11 -9 25 -9 14 0 25 -4 25 -9 0 -5 25 -12 55 -16 30 -3 55
-11 55 -16 0 -5 18 -12 40 -15 22 -4 40 -10 40 -15 0 -4 16 -11 35 -15 19 -3
35 -10 35 -15 0 -5 9 -9 20 -9 11 0 20 -4 20 -10 0 -5 7 -10 15 -10 9 0 18 -7
21 -15 3 -8 21 -17 39 -21 19 -3 36 -12 39 -20 3 -8 11 -14 18 -14 8 0 20 -9
28 -20 20 -28 86 -28 95 -1 3 11 12 22 20 25 10 4 15 20 15 52 0 40 -5 52 -33
79 -19 18 -43 36 -55 39 -12 4 -22 12 -22 17 0 5 -6 9 -14 9 -8 0 -16 7 -20
15 -3 8 -12 15 -21 15 -8 0 -15 4 -15 9 0 5 -16 12 -35 15 -19 4 -35 11 -35
16 0 4 -13 11 -30 15 -16 4 -30 11 -30 16 0 5 -7 9 -15 9 -8 0 -15 4 -15 9 0
5 -18 11 -40 15 -22 3 -40 10 -40 15 0 5 -20 12 -45 15 -25 4 -45 11 -45 15 0
5 -29 12 -65 16 -36 3 -65 11 -65 16 0 5 -18 9 -39 9 -22 0 -41 4 -43 8 -3 10
-143 22 -170 15z"/>
<path d="M3840 5520 c0 -5 -6 -10 -13 -10 -25 0 -47 -39 -47 -86 0 -59 34 -94
91 -94 22 0 39 -4 39 -10 0 -5 18 -10 40 -10 22 0 40 -4 40 -9 0 -5 32 -12 70
-16 39 -4 70 -11 70 -15 0 -5 20 -12 45 -16 25 -3 45 -10 45 -14 0 -4 18 -10
40 -14 22 -3 40 -11 40 -16 0 -6 7 -10 15 -10 8 0 15 -4 15 -9 0 -5 18 -11 40
-15 22 -3 40 -10 40 -15 0 -5 11 -12 25 -15 14 -4 25 -10 25 -15 0 -5 13 -12
28 -16 15 -3 34 -15 42 -25 8 -11 20 -20 27 -20 6 0 16 -7 21 -16 5 -8 27 -18
50 -21 70 -9 107 44 86 125 -4 12 -13 22 -21 22 -8 0 -11 5 -8 10 3 6 2 10 -4
10 -6 0 -24 14 -41 30 -17 17 -37 30 -44 30 -8 0 -16 7 -20 15 -3 8 -11 15
-18 15 -8 0 -20 9 -28 20 -8 10 -27 22 -42 25 -15 4 -28 11 -28 15 0 5 -16 12
-35 16 -19 3 -35 10 -35 14 0 5 -13 11 -30 15 -16 4 -30 11 -30 16 0 5 -11 9
-25 9 -14 0 -25 4 -25 9 0 6 -20 13 -45 17 -25 3 -45 10 -45 14 0 4 -28 11
-62 15 -35 4 -65 11 -68 16 -3 4 -43 11 -88 15 -45 4 -82 11 -82 15 0 5 -11 9
-25 9 -14 0 -25 -4 -25 -10z"/>
<path d="M3828 5033 c-10 -2 -21 -15 -24 -29 -3 -13 -10 -24 -15 -24 -5 0 -9
-18 -9 -40 0 -22 4 -40 9 -40 5 0 12 -11 15 -24 6 -26 30 -36 94 -36 23 0 42
-4 42 -9 0 -4 32 -12 70 -15 39 -4 70 -11 70 -15 0 -5 20 -12 45 -15 25 -4 45
-11 45 -17 0 -5 11 -9 25 -9 14 0 25 -4 25 -9 0 -5 18 -12 40 -16 22 -4 40
-11 40 -15 0 -5 14 -11 30 -15 17 -4 30 -11 30 -15 0 -5 16 -12 35 -16 20 -3
37 -13 40 -24 3 -10 17 -21 31 -24 24 -6 35 -13 69 -43 7 -7 18 -13 23 -13 5
0 18 -11 28 -25 14 -19 28 -25 56 -25 21 0 38 5 38 10 0 6 7 10 15 10 33 0 32
110 -1 149 -10 11 -24 21 -31 21 -7 0 -13 4 -13 9 0 5 -9 12 -19 16 -11 3 -23
15 -26 26 -4 10 -13 19 -21 19 -8 0 -22 9 -31 20 -10 11 -25 20 -35 20 -10 0
-18 5 -18 10 0 6 -7 10 -15 10 -9 0 -18 7 -21 15 -4 8 -12 15 -20 15 -8 0 -14
4 -14 9 0 5 -18 12 -40 16 -22 4 -40 11 -40 15 0 5 -16 12 -35 16 -19 3 -35
10 -35 15 0 4 -20 11 -45 15 -25 3 -45 10 -45 15 0 5 -11 9 -25 9 -14 0 -25 4
-25 9 0 5 -26 12 -57 16 -32 4 -60 10 -63 15 -6 9 -168 20 -192 13z"/>
<path d="M6170 5980 c0 -5 -18 -10 -40 -10 -22 0 -40 -4 -40 -9 0 -4 -25 -11
-57 -14 -31 -3 -59 -10 -62 -15 -3 -5 -28 -12 -55 -16 -28 -3 -52 -10 -55 -15
-4 -5 -23 -12 -44 -16 -20 -4 -37 -11 -37 -16 0 -5 -7 -9 -15 -9 -8 0 -15 -4
-15 -9 0 -5 -16 -12 -35 -15 -19 -4 -35 -11 -35 -16 0 -6 -7 -10 -15 -10 -9 0
-18 -7 -21 -15 -4 -8 -15 -15 -25 -15 -11 0 -22 -7 -25 -15 -4 -8 -11 -15 -16
-15 -6 0 -21 -11 -34 -25 -13 -14 -28 -25 -35 -25 -7 0 -27 -16 -45 -35 -29
-28 -34 -41 -34 -79 0 -63 21 -86 81 -86 37 0 50 5 65 24 10 14 28 27 41 31
13 3 23 10 23 15 0 6 7 10 15 10 9 0 18 7 21 15 3 8 21 17 40 21 19 3 34 10
34 15 0 5 7 9 15 9 8 0 15 4 15 9 0 5 14 12 30 16 17 4 30 10 30 15 0 4 18 10
40 14 22 3 40 10 40 15 0 5 25 13 55 16 30 4 55 11 55 16 0 5 13 9 29 9 16 0
31 4 33 10 2 5 38 13 81 16 42 4 77 11 77 15 0 5 10 9 23 9 35 0 67 11 61 21
-3 5 2 12 10 15 12 4 16 20 16 55 0 27 -4 49 -10 49 -5 0 -10 7 -10 15 0 8 -7
15 -15 15 -8 0 -15 5 -15 10 0 6 -30 10 -70 10 -40 0 -70 -4 -70 -10z"/>
<path d="M6183 5503 c-24 -2 -43 -9 -43 -16 0 -7 -4 -6 -10 3 -5 8 -10 10 -10
3 0 -6 -26 -14 -60 -18 -33 -4 -60 -10 -60 -15 0 -4 -24 -10 -52 -13 -29 -4
-54 -11 -56 -17 -2 -5 -10 -10 -18 -10 -8 0 -14 -4 -14 -9 0 -5 -18 -11 -40
-15 -22 -3 -40 -10 -40 -16 0 -5 -16 -12 -35 -16 -19 -3 -35 -10 -35 -14 0 -5
-13 -11 -30 -15 -16 -4 -30 -11 -30 -16 0 -5 -7 -9 -15 -9 -8 0 -15 -4 -15 -9
0 -5 -10 -13 -22 -17 -12 -4 -33 -20 -47 -35 -14 -16 -33 -29 -43 -29 -9 0
-19 -9 -23 -19 -3 -11 -12 -22 -20 -25 -8 -3 -15 -12 -15 -21 0 -8 -4 -15 -10
-15 -5 0 -10 -18 -10 -40 0 -22 5 -40 11 -40 5 0 7 -5 4 -11 -4 -6 2 -13 14
-16 12 -3 21 -9 21 -14 0 -5 14 -9 30 -9 17 0 30 5 30 10 0 6 6 10 14 10 8 0
29 15 47 33 18 17 36 31 41 29 4 -1 8 2 8 7 0 5 11 12 25 15 14 4 25 10 25 15
0 5 14 12 30 16 17 4 30 10 30 15 0 5 14 11 30 15 17 4 30 11 30 16 0 5 9 9
20 9 11 0 20 4 20 9 0 6 20 13 45 17 25 3 45 10 45 14 0 5 25 12 55 15 30 4
55 11 55 16 0 4 32 11 70 15 39 3 70 11 70 15 0 5 23 9 50 9 28 0 50 4 50 9 0
5 9 11 20 14 11 3 20 12 20 21 0 9 5 16 10 16 6 0 10 23 10 50 0 28 -4 50 -10
50 -5 0 -10 6 -10 14 0 24 -43 29 -157 19z"/>
<path d="M7960 4831 c0 -5 -11 -12 -24 -15 -17 -4 -26 -15 -31 -38 -4 -18 -11
-37 -15 -43 -4 -5 -10 -36 -14 -68 -3 -32 -10 -65 -16 -75 -5 -9 -12 -38 -15
-64 -3 -27 -10 -48 -16 -48 -5 0 -9 -11 -9 -25 0 -14 -4 -25 -9 -25 -4 0 -11
-19 -14 -42 -3 -24 -11 -44 -16 -46 -6 -2 -11 -12 -11 -22 0 -23 -42 -134 -52
-138 -4 -2 -8 -10 -8 -18 0 -8 -4 -14 -10 -14 -5 0 -12 -16 -16 -35 -3 -19
-10 -35 -14 -35 -5 0 -11 -13 -15 -30 -4 -16 -10 -30 -15 -30 -4 0 -11 -11
-14 -25 -4 -14 -11 -25 -16 -25 -6 0 -10 -6 -10 -14 0 -8 -7 -16 -15 -20 -8
-3 -15 -12 -15 -21 0 -8 -4 -15 -10 -15 -5 0 -10 -8 -10 -18 0 -10 -8 -25 -17
-35 -10 -9 -29 -31 -43 -48 -14 -16 -31 -36 -37 -44 -7 -7 -13 -16 -13 -20 0
-12 -268 -275 -280 -275 -6 0 -21 -11 -34 -25 -13 -14 -28 -25 -35 -25 -6 0
-11 -4 -11 -9 0 -5 -17 -20 -37 -32 -21 -13 -40 -25 -43 -28 -9 -10 -45 -31
-62 -37 -10 -4 -18 -10 -18 -14 0 -5 -13 -11 -29 -15 -16 -3 -32 -13 -35 -21
-3 -8 -15 -14 -26 -14 -11 0 -20 -4 -20 -9 0 -5 -13 -12 -30 -16 -16 -4 -30
-11 -30 -16 0 -5 -11 -9 -25 -9 -14 0 -25 -4 -25 -9 0 -5 -13 -12 -30 -16 -16
-4 -30 -10 -30 -15 0 -4 -20 -11 -45 -14 -25 -4 -45 -11 -45 -16 0 -4 -22 -11
-50 -15 -27 -4 -50 -10 -50 -14 0 -9 -68 -29 -130 -37 -30 -4 -59 -10 -65 -14
-5 -5 -48 -11 -95 -15 -47 -4 -98 -10 -115 -15 -16 -4 -81 -11 -142 -14 l-113
-6 0 154 c0 159 -6 220 -21 210 -5 -3 -9 1 -9 8 0 15 -35 48 -50 48 -6 0 -10
5 -10 10 0 6 -24 10 -54 10 -30 0 -58 -4 -61 -10 -3 -5 -15 -10 -26 -10 -10 0
-19 -4 -19 -9 0 -5 -17 -20 -37 -32 -21 -13 -39 -27 -41 -31 -2 -4 -10 -8 -18
-8 -8 0 -17 -6 -20 -14 -3 -7 -21 -22 -40 -32 -19 -10 -34 -22 -34 -26 0 -5
-7 -8 -15 -8 -9 0 -18 -7 -21 -15 -4 -8 -12 -15 -20 -15 -7 0 -24 -11 -38 -25
-14 -14 -30 -25 -36 -25 -6 0 -13 -7 -16 -15 -4 -8 -14 -15 -23 -15 -9 0 -24
-9 -34 -20 -9 -11 -23 -20 -31 -20 -8 0 -16 -7 -20 -15 -3 -8 -17 -20 -31 -25
-14 -5 -25 -14 -25 -20 0 -5 -7 -10 -15 -10 -8 0 -23 -9 -32 -20 -10 -11 -23
-20 -30 -20 -7 0 -25 -12 -40 -26 -15 -14 -35 -32 -44 -40 -9 -8 -23 -14 -31
-14 -9 0 -18 -7 -22 -15 -3 -8 -11 -15 -18 -15 -8 0 -20 -9 -28 -20 -8 -11
-20 -20 -27 -20 -7 0 -21 -9 -30 -20 -10 -11 -23 -20 -30 -20 -7 0 -13 -4 -13
-9 0 -5 -10 -13 -22 -17 -13 -4 -30 -14 -38 -24 -8 -9 -23 -19 -32 -23 -10 -3
-18 -11 -18 -16 0 -5 -10 -13 -22 -17 -23 -7 -138 -119 -138 -135 0 -5 -4 -9
-9 -9 -4 0 -13 -32 -20 -70 -9 -54 -9 -86 1 -135 6 -36 15 -65 20 -65 4 0 8
-5 8 -10 0 -9 19 -34 77 -96 12 -13 29 -24 38 -24 9 0 18 -7 21 -15 4 -8 12
-15 19 -15 8 0 20 -6 27 -13 21 -20 108 -77 119 -77 5 0 9 -4 9 -9 0 -5 10
-13 23 -17 12 -4 29 -14 37 -24 8 -9 23 -19 33 -23 9 -3 17 -11 17 -17 0 -5 9
-10 20 -10 11 0 23 -6 26 -14 3 -8 16 -17 30 -20 13 -4 24 -11 24 -16 0 -6 7
-10 15 -10 8 0 15 -4 15 -10 0 -5 11 -12 24 -16 14 -3 27 -12 30 -20 3 -8 12
-14 21 -14 8 0 15 -4 15 -9 0 -5 10 -13 23 -17 12 -4 29 -14 37 -24 8 -9 23
-19 33 -23 9 -3 17 -11 17 -17 0 -5 9 -10 20 -10 11 0 23 -7 26 -15 4 -8 12
-15 19 -15 8 0 20 -6 27 -13 21 -20 108 -77 119 -77 5 0 9 -4 9 -9 0 -5 10
-13 23 -17 12 -4 29 -14 37 -24 8 -9 23 -19 33 -23 9 -3 17 -11 17 -17 0 -5 9
-10 20 -10 10 0 23 -6 27 -14 22 -39 162 -38 201 1 37 37 42 69 42 287 l0 213
53 11 c28 7 75 15 102 18 28 3 59 10 70 14 11 5 43 14 70 19 75 15 138 30 160
40 11 5 43 17 70 26 28 9 58 21 67 26 10 5 23 9 30 9 7 0 25 6 40 14 15 8 40
17 57 21 17 4 31 11 31 16 0 5 7 9 15 9 8 0 15 4 15 10 0 5 16 12 35 16 19 3
35 10 35 14 0 5 14 11 30 15 17 4 30 10 30 15 0 5 14 11 30 15 17 4 30 11 30
16 0 5 6 9 14 9 8 0 16 3 18 8 2 4 24 18 51 32 26 13 47 28 47 31 0 4 13 10
28 14 15 3 34 15 42 25 8 11 20 20 28 20 7 0 15 7 18 15 3 8 15 17 26 21 19 6
30 14 102 76 17 15 34 28 38 28 4 0 35 27 69 60 34 33 66 60 71 60 11 0 58 50
58 61 0 4 9 11 20 14 11 3 20 12 20 19 0 7 27 41 60 74 33 34 60 64 60 67 0 7
19 31 43 53 9 9 17 21 17 26 0 5 10 17 22 27 22 20 43 51 54 82 3 9 9 17 13
17 4 0 15 16 25 35 11 19 23 35 28 35 4 0 8 6 8 14 0 7 9 25 20 39 11 14 20
32 20 41 0 9 5 16 10 16 6 0 10 6 10 13 0 7 11 29 24 48 14 20 28 48 32 63 3
14 10 26 14 26 5 0 11 14 15 30 4 17 10 30 15 30 4 0 11 18 15 40 4 22 11 40
16 40 5 0 9 7 9 15 0 8 5 15 10 15 6 0 10 8 10 18 0 17 36 132 51 163 4 9 10
37 14 63 4 25 11 46 16 46 5 0 9 14 9 30 0 17 4 30 9 30 4 0 12 32 15 70 4 39
11 70 15 70 4 0 8 15 9 34 1 18 7 64 13 102 17 116 30 314 27 415 -3 92 -4 97
-35 127 -27 28 -39 32 -82 32 -28 0 -51 -4 -51 -9z"/>
</g>
</svg>
